PathFileType	4	(X/Y/Z)	C:/Users/opensim2020/Desktop/walking_exp_matlab/subject01_walking14_straight_01.trc	
DataRate	CameraRate	NumFrames	NumMarkers	Units	OrigDataRate	OrigDataStartFrame	OrigNumFrames	
100.00	100.00	4	42	mm	100.00	704	106	
Frame#	Time	LFHD			RFHD			LBHD			RBHD			C7			T10			CLAV			STRN			RBAK			LSHO			LUPA			LELB			LFRM			LWRA			LWRB			LFIN			RSHO			RUPA			RELB			RFRM			RWRA			RWRB			RFIN			LASI			RASI			LPSI			RPSI			LTHI			LKNE			LTIB			LANK			LHEE			LTOE			RTHI			RKNE			RTIB			RANK			RHEE			RTOE			*39			*40			*41			
		X1	Y1	Z1	X2	Y2	Z2	X3	Y3	Z3	X4	Y4	Z4	X5	Y5	Z5	X6	Y6	Z6	X7	Y7	Z7	X8	Y8	Z8	X9	Y9	Z9	X10	Y10	Z10	X11	Y11	Z11	X12	Y12	Z12	X13	Y13	Z13	X14	Y14	Z14	X15	Y15	Z15	X16	Y16	Z16	X17	Y17	Z17	X18	Y18	Z18	X19	Y19	Z19	X20	Y20	Z20	X21	Y21	Z21	X22	Y22	Z22	X23	Y23	Z23	X24	Y24	Z24	X25	Y25	Z25	X26	Y26	Z26	X27	Y27	Z27	X28	Y28	Z28	X29	Y29	Z29	X30	Y30	Z30	X31	Y31	Z31	X32	Y32	Z32	X33	Y33	Z33	X34	Y34	Z34	X35	Y35	Z35	X36	Y36	Z36	X37	Y37	Z37	X38	Y38	Z38	X39	Y39	Z39	X40	Y40	Z40	X41	Y41	Z41	X42	Y42	Z42	

27	0.260	1442.76758	-510.69916	1656.59509	1550.28601	-475.14462	1662.65198	1474.41687	-622.07343	1611.90942	1589.01074	-586.95209	1616.79065	1504.82312	-656.33173	1424.98206	1505.18726	-711.83630	1134.77893	1501.11377	-516.92828	1347.01257	1493.32764	-484.35999	1190.26794	1572.55103	-723.34668	1234.14587	1342.43726	-577.55548	1382.58911	1250.15320	-607.28168	1203.21558	1240.51086	-613.90448	1048.04175	1230.42175	-522.20502	970.49402	1260.50000	-395.64365	923.34271	1241.59827	-435.88315	883.98810	1236.39978	-357.12112	854.68011	1653.60376	-578.85797	1381.32251	1742.40784	-678.80255	1195.10315	1748.33704	-693.75348	1071.16052	1779.44849	-687.38959	950.55798	1767.31665	-623.87885	822.97955	1799.37415	-671.66772	829.54987	1806.06067	-644.71558	748.43573	1391.20374	-561.46802	915.35651	1607.44458	-545.77826	927.21527	1459.41443	-742.18042	937.30243	1603.45422	-729.92883	938.93884	1370.21399	-650.97827	582.64642	1398.22339	-688.34607	452.92960	1407.75586	-773.32300	283.46509	1477.67285	-841.82916	80.40173	1530.65588	-892.40765	62.56876	1478.33997	-701.74390	29.62018	1690.42395	-489.30975	620.55963	1674.34473	-430.95724	472.89349	1695.65649	-468.41403	301.02130	1665.33496	-473.46979	89.17937	1615.48523	-516.46649	43.96051	1673.68262	-334.82245	59.98785	1530.55957	-490.71231	1696.17529	-3102.03003	1973.10413	1023.40277	-3140.88770	2012.55212	1022.06744 
28	0.270	1444.42090	-497.81009	1655.62988	1551.84521	-462.25122	1661.56702	1476.17273	-609.14282	1610.85730	1590.70227	-573.95953	1615.56628	1506.30981	-643.39941	1423.93237	1507.03955	-699.05701	1133.79993	1502.35645	-503.91367	1345.95398	1494.26440	-471.48483	1189.17395	1573.95691	-710.13428	1233.00476	1343.88147	-564.71991	1381.83765	1251.28870	-593.51282	1202.54431	1241.10474	-598.70789	1047.51965	1231.35364	-504.42169	972.99780	1261.60022	-376.53488	930.63806	1242.80322	-415.15762	889.60284	1237.54321	-335.34195	863.62549	1654.97888	-565.65234	1380.20154	1743.58911	-666.54065	1194.42529	1749.35352	-682.03351	1070.58813	1780.49756	-677.37195	950.10754	1768.45752	-616.15637	821.37811	1800.54565	-664.07813	828.91833	1807.20410	-638.44836	747.14069	1391.58606	-550.31995	914.58295	1607.94458	-531.78699	926.04596	1462.09680	-729.77271	936.42584	1605.62207	-716.14771	937.69598	1370.56763	-644.16675	583.15900	1398.09412	-683.34253	453.79575	1408.02637	-770.41107	285.41864	1477.37732	-841.09308	82.74363	1530.58887	-891.58600	65.83220	1478.11279	-701.52515	29.57145	1691.02600	-478.66898	618.00537	1674.74207	-417.60114	471.87662	1697.07263	-444.63617	298.96530	1667.15515	-434.66772	86.53921	1617.78162	-475.06552	38.12548	1671.84961	-293.83090	66.46898	1532.28943	-477.84741	1695.17188	-3102.11694	1973.07898	1023.99341	-3140.68335	2012.57239	1022.08990 
29	0.280	1446.24084	-485.11734	1654.70679	1553.66980	-449.15927	1660.46326	1478.16077	-596.27142	1609.73962	1592.60364	-560.84668	1614.28552	1507.93164	-630.51398	1422.66724	1508.91321	-686.02545	1132.66785	1503.68359	-490.88754	1344.86609	1495.34827	-458.40619	1188.10583	1575.44910	-696.89001	1231.72241	1345.42090	-551.90649	1381.11438	1252.57507	-579.65198	1201.87317	1242.08569	-583.10657	1047.51074	1232.15417	-486.98853	975.46606	1262.76709	-357.78528	937.65131	1243.83337	-394.98987	895.12921	1238.54480	-314.26776	872.24164	1656.41846	-552.34650	1378.94495	1744.86792	-654.01898	1193.50964	1750.50610	-670.13831	1069.86072	1781.64612	-667.07031	949.53198	1769.62463	-608.05121	819.83124	1801.62695	-655.70813	828.07599	1808.49744	-631.70966	745.92523	1392.45398	-538.00763	913.95203	1608.47009	-517.54010	924.79382	1464.86072	-717.02582	935.63702	1608.07288	-702.08142	936.68079	1370.83984	-636.92560	583.85382	1397.95898	-677.97607	454.74133	1407.86096	-767.03473	287.43201	1476.96204	-840.12976	85.42365	1529.95154	-890.54083	69.05766	1477.97388	-701.48810	29.54169	1692.06982	-468.69116	614.82648	1674.88696	-404.07339	470.90363	1698.10815	-422.02740	297.42004	1668.77856	-397.80219	85.50478	1620.39392	-435.44720	34.25629	1670.67737	-255.45273	74.32883	1534.15918	-464.87723	1694.04492	-3101.91650	1973.17993	1023.63110	-3140.68018	2012.53027	1022.14893 
30	0.290	1448.23865	-472.27740	1653.76379	1555.65552	-436.09088	1659.29956	1480.31824	-583.35901	1608.59583	1594.68860	-547.69373	1612.90625	1509.77307	-617.55017	1421.50964	1510.92847	-672.95007	1131.58167	1505.10645	-477.77716	1343.73584	1496.44531	-445.32693	1186.98621	1577.04688	-683.44672	1230.24475	1347.11206	-539.05713	1380.36133	1253.86450	-565.65649	1201.25342	1242.40234	-568.21790	1046.71631	1232.94031	-469.71747	977.82483	1263.67712	-339.72662	944.10632	1244.65442	-375.33157	900.43390	1239.53503	-293.76599	880.49097	1658.06458	-538.90063	1377.65051	1746.27454	-641.34973	1192.49353	1751.74194	-657.96906	1069.03967	1782.90869	-656.41968	948.83783	1770.86926	-599.35724	818.19470	1802.76001	-646.80243	827.31622	1809.76599	-624.13501	744.61700	1393.22363	-525.75500	913.24786	1608.88599	-503.03104	923.46075	1467.66479	-704.03638	934.96948	1610.65137	-687.53088	935.66522	1371.19238	-629.31830	584.58502	1397.72351	-672.02917	455.77914	1407.55615	-763.19696	289.62933	1476.23645	-838.80994	87.99411	1529.11462	-889.53802	72.91917	1477.77930	-701.39551	29.51406	1694.34534	-458.72870	611.38647	1674.76563	-390.69934	469.55121	1698.64160	-400.41516	296.06015	1670.04419	-363.44168	85.66044	1622.00879	-398.12073	31.43858	1670.21655	-220.53392	82.82156	1536.24609	-451.94150	1692.91846	-3101.89648	1973.09753	1023.33447	-3140.72681	2012.52185	1021.98639 
